<svg xmlns="http://www.w3.org/2000/svg" xml:space="preserve"
    style="fill-rule:evenodd;clip-rule:evenodd;stroke-linejoin:round;stroke-miterlimit:2" viewBox="0 0 2046 369">
    <path
        d="M431.378 1468.71c-2.8 0-4.991-.8-6.575-2.4-1.583-1.6-2.375-4.15-2.375-7.65 0-2.97.534-6.3 1.6-10 1.067-3.7 2.625-6.87 4.675-9.5s4.475-3.95 7.275-3.95c1 0 1.867.13 2.6.4-1.466.87-2.875 2.65-4.225 5.35-1.35 2.7-2.441 5.72-3.275 9.05-.833 3.33-1.25 6.28-1.25 8.85 0 1.8.234 3.22.7 4.25.467 1.03 1.2 1.55 2.2 1.55 1.634 0 3.259-1.17 4.875-3.53 1.617-2.34 2.95-5.3 4-8.87 1.05-3.57 1.575-7 1.575-10.3 0-2.07-.175-3.72-.525-4.97-.35-1.25-.991-2.2-1.925-2.83-.933-.63-2.25-.95-3.95-.95-2.566 0-4.95.53-7.15 1.58s-3.958 2.55-5.275 4.5c-1.316 1.95-1.975 4.2-1.975 6.77 0 .9.084 1.56.25 1.98.167.41.25.65.25.72-1.666 0-2.925-.33-3.775-1-.85-.67-1.275-1.73-1.275-3.2 0-2.3.942-4.5 2.825-6.6 1.884-2.1 4.384-3.8 7.5-5.1 3.117-1.3 6.392-1.95 9.825-1.95 4.167 0 7.184 1.13 9.05 3.4 1.867 2.27 2.8 5.4 2.8 9.4 0 3.57-.666 7.28-2 11.15-1.333 3.87-3.391 7.14-6.175 9.82-2.783 2.69-6.208 4.03-10.275 4.03Z"
        style="fill:#0085ff;fill-rule:nonzero" transform="matrix(-8.73971 0 0 -7.37243 3931.378 10827.94)" />
    <path
        d="M454.078 1441.56h7.2l-.8 3.75c1.667-1.43 3.617-2.15 5.85-2.15 1.867 0 3.35.62 4.45 1.85s1.65 3.25 1.65 6.05c0 2.63-.383 5.29-1.15 7.98-.766 2.68-2.066 4.96-3.9 6.84-1.833 1.89-4.25 2.83-7.25 2.83-2.133 0-3.55-.6-4.25-1.8l-2.6 12.2-7.55 1.8 8.35-39.35Zm4.5 22.8c1.6 0 2.925-.75 3.975-2.25 1.05-1.5 1.817-3.29 2.3-5.37.484-2.09.725-4.03.725-5.83 0-2.77-.833-4.15-2.5-4.15-.6 0-1.208.22-1.825.65-.616.43-1.158 1.03-1.625 1.8l-2.95 14c.267.77.9 1.15 1.9 1.15ZM480.828 1468.71c-2.466 0-4.383-.64-5.75-1.92-1.366-1.29-2.05-3.3-2.05-6.03 0-2.3.45-4.83 1.35-7.6.9-2.77 2.367-5.16 4.4-7.17 2.034-2.02 4.617-3.03 7.75-3.03 3.667 0 5.5 1.6 5.5 4.8 0 1.87-.533 3.58-1.6 5.15-1.066 1.57-2.483 2.83-4.25 3.77-1.766.95-3.65 1.5-5.65 1.63-.066 1-.1 1.67-.1 2 0 1.63.284 2.74.85 3.32.567.59 1.484.88 2.75.88 1.8 0 3.342-.42 4.625-1.25 1.284-.83 2.692-2.1 4.225-3.8h1.7c-3.7 6.17-8.283 9.25-13.75 9.25Zm.1-12.8c1.234-.07 2.409-.5 3.525-1.3a9.181 9.181 0 0 0 2.7-3.05 7.905 7.905 0 0 0 1.025-3.9c0-1.37-.416-2.05-1.25-2.05-1.2 0-2.375 1.05-3.525 3.15-1.15 2.1-1.975 4.48-2.475 7.15Z"
        style="fill:#0085ff;fill-rule:nonzero" transform="matrix(8.73971 0 0 7.37243 -3651.692 -10549.306)" />
    <path
        d="M510.078 1468.71c-1.766 0-3.05-.53-3.85-1.6-.8-1.07-1.2-2.42-1.2-4.05 0-.7.084-1.49.25-2.38.167-.88.342-1.74.525-2.57.184-.83.309-1.37.375-1.6.267-1.17.517-2.32.75-3.45.234-1.13.35-2.05.35-2.75 0-1.7-.6-2.55-1.8-2.55-.866 0-1.633.42-2.3 1.28-.666.84-1.2 1.95-1.6 3.32l-3.4 16.05h-7.2l5.3-25h7.2l-.55 2.6c1.667-1.87 3.617-2.8 5.85-2.8 1.7 0 3.05.47 4.05 1.4 1 .93 1.5 2.35 1.5 4.25 0 .97-.116 2.04-.35 3.23a82.724 82.724 0 0 1-1 4.32 89.366 89.366 0 0 0-.725 3.02c-.216.99-.325 1.76-.325 2.33 0 .67.15 1.18.45 1.55.3.37.817.55 1.55.55.8 0 1.35-.1 1.65-.3-.2 1.7-.808 2.98-1.825 3.85-1.016.87-2.241 1.3-3.675 1.3Z"
        style="fill:#0085ff;fill-rule:nonzero" transform="matrix(8.73971 0 0 7.37243 -3651.692 -10549.306)" />
    <path
        d="M543.528 1480.91c-1.5 0-2.975-.42-4.425-1.28-1.45-.84-3.291-2.15-5.525-3.92-1.666-1.33-3.091-2.41-4.275-3.22a20.289 20.289 0 0 0-3.85-2.08 10.989 10.989 0 0 0-4.225-.85c-.5 0-.883.02-1.15.05l7.45-34.65c-2.233.9-3.958 2.28-5.175 4.13-1.216 1.84-1.825 4.1-1.825 6.77 0 1.23.117 2.09.35 2.57.234.49.35.76.35.83-1.8 0-3.141-.38-4.025-1.13-.883-.75-1.325-1.99-1.325-3.72 0-2.13.875-4.21 2.625-6.23 1.75-2.01 3.992-3.64 6.725-4.89 2.734-1.25 5.467-1.88 8.2-1.88.467 0 1.134.03 2 .1l-7.7 35.9c.934.23 1.892.58 2.875 1.02.984.45 2.175 1.06 3.575 1.83 2.167 1.17 4.017 2.06 5.55 2.67 1.534.62 3.134.93 4.8.93 1.5 0 2.9-.27 4.2-.8-.266 2.43-.858 4.35-1.775 5.75-.916 1.4-2.058 2.1-3.425 2.1Z"
        style="fill:#5d748a;fill-rule:nonzero" transform="matrix(8.73971 0 0 7.37243 -3651.692 -10549.306)" />
    <path
        d="M541.678 1468.71c-2.466 0-4.383-.64-5.75-1.92-1.366-1.29-2.05-3.3-2.05-6.03 0-2.3.45-4.83 1.35-7.6.9-2.77 2.367-5.16 4.4-7.17 2.034-2.02 4.617-3.03 7.75-3.03 3.667 0 5.5 1.6 5.5 4.8 0 1.87-.533 3.58-1.6 5.15-1.066 1.57-2.483 2.83-4.25 3.77-1.766.95-3.65 1.5-5.65 1.63-.066 1-.1 1.67-.1 2 0 1.63.284 2.74.85 3.32.567.59 1.484.88 2.75.88 1.8 0 3.342-.42 4.625-1.25 1.284-.83 2.692-2.1 4.225-3.8h1.7c-3.7 6.17-8.283 9.25-13.75 9.25Zm.1-12.8c1.234-.07 2.409-.5 3.525-1.3a9.181 9.181 0 0 0 2.7-3.05 7.905 7.905 0 0 0 1.025-3.9c0-1.37-.416-2.05-1.25-2.05-1.2 0-2.375 1.05-3.525 3.15-1.15 2.1-1.975 4.48-2.475 7.15Z"
        style="fill:#5d748a;fill-rule:nonzero" transform="matrix(8.73971 0 0 7.37243 -3651.692 -10549.306)" />
    <path
        d="M584.128 1468.71c-2.033 0-3.525-.54-4.475-1.62-.95-1.09-1.425-2.43-1.425-4.03 0-.7.084-1.49.25-2.38.167-.88.342-1.74.525-2.57.184-.83.309-1.37.375-1.6.267-1.17.517-2.32.75-3.45.234-1.13.35-2.05.35-2.75 0-1.7-.6-2.55-1.8-2.55-.866 0-1.633.42-2.3 1.28-.666.84-1.2 1.95-1.6 3.32l-3.4 16.05h-7.2l3.65-17.25c.1-.4.15-.82.15-1.25 0-1.47-.5-2.2-1.5-2.2-.933 0-1.741.42-2.425 1.28-.683.85-1.225 1.97-1.625 3.37l-3.4 16.05h-7.2l5.3-25h7.2l-.55 2.6c1.7-1.9 3.734-2.85 6.1-2.85 2.934 0 4.65 1.43 5.15 4.3 1.834-2.83 4.15-4.25 6.95-4.25 1.7 0 3.05.47 4.05 1.4 1 .93 1.5 2.35 1.5 4.25 0 .97-.116 2.04-.35 3.23a82.724 82.724 0 0 1-1 4.32 89.366 89.366 0 0 0-.725 3.02c-.216.99-.325 1.76-.325 2.33 0 .67.15 1.18.45 1.55.3.37.817.55 1.55.55 1 0 1.8-.36 2.4-1.07.6-.72 1.2-1.83 1.8-3.33h2.1c-1.233 3.67-2.658 6.13-4.275 7.38-1.616 1.25-3.291 1.87-5.025 1.87Z"
        style="fill:#5d748a;fill-rule:nonzero" transform="matrix(8.73971 0 0 7.37243 -3651.692 -10549.306)" />
    <path
        d="M621.728 1468.71c-2.033 0-3.525-.54-4.475-1.62-.95-1.09-1.425-2.43-1.425-4.03 0-.7.084-1.49.25-2.38.167-.88.342-1.74.525-2.57.184-.83.309-1.37.375-1.6.267-1.17.517-2.32.75-3.45.234-1.13.35-2.05.35-2.75 0-1.7-.6-2.55-1.8-2.55-.866 0-1.633.42-2.3 1.28-.666.84-1.2 1.95-1.6 3.32l-3.4 16.05h-7.2l3.65-17.25c.1-.4.15-.82.15-1.25 0-1.47-.5-2.2-1.5-2.2-.933 0-1.741.42-2.425 1.28-.683.85-1.225 1.97-1.625 3.37l-3.4 16.05h-7.2l5.3-25h7.2l-.55 2.6c1.7-1.9 3.734-2.85 6.1-2.85 2.934 0 4.65 1.43 5.15 4.3 1.834-2.83 4.15-4.25 6.95-4.25 1.7 0 3.05.47 4.05 1.4 1 .93 1.5 2.35 1.5 4.25 0 .97-.116 2.04-.35 3.23a82.724 82.724 0 0 1-1 4.32 89.366 89.366 0 0 0-.725 3.02c-.216.99-.325 1.76-.325 2.33 0 .67.15 1.18.45 1.55.3.37.817.55 1.55.55 1 0 1.8-.36 2.4-1.07.6-.72 1.2-1.83 1.8-3.33h2.1c-1.233 3.67-2.658 6.13-4.275 7.38-1.616 1.25-3.291 1.87-5.025 1.87Z"
        style="fill:#5d748a;fill-rule:nonzero" transform="matrix(8.73971 0 0 7.37243 -3651.692 -10549.306)" />
    <path
        d="M636.728 1480.91c-1.566 0-2.941-.51-4.125-1.53-1.183-1.01-1.775-2.3-1.775-3.87 0-1.47.367-2.67 1.1-3.6.734-.93 1.684-1.67 2.85-2.2 1.167-.53 2.734-1.1 4.7-1.7l.5-2.2c-1.7 1.93-3.733 2.9-6.1 2.9-1.6 0-2.891-.5-3.875-1.5-.983-1-1.475-2.5-1.475-4.5 0-.83.134-1.92.4-3.25l3.4-16.05h7.2l-3.6 17c-.1.4-.15.82-.15 1.25 0 1.47.5 2.2 1.5 2.2.934 0 1.734-.39 2.4-1.18.667-.78 1.2-1.85 1.6-3.22l3.4-16.05h7.25l-6.1 29c-.666 3.2-1.841 5.42-3.525 6.65-1.683 1.23-3.541 1.85-5.575 1.85Zm-1.15-4.45c.6 0 1.167-.31 1.7-.92.534-.62.95-1.61 1.25-2.98l.6-2.95c-1.766.6-3.133 1.3-4.1 2.1-.966.8-1.45 1.83-1.45 3.1 0 .4.2.78.6 1.12.4.36.867.53 1.4.53Z"
        style="fill:#5d748a;fill-rule:nonzero" transform="matrix(8.73971 0 0 7.37243 -3651.692 -10549.306)" />
</svg>
