<svg xmlns="http://www.w3.org/2000/svg" xml:space="preserve"
    style="fill-rule:evenodd;clip-rule:evenodd;stroke-linejoin:round;stroke-miterlimit:2" viewBox="0 0 3000 3000">
    <path
        d="M431.378 1468.71c-2.8 0-4.991-.8-6.575-2.4-1.583-1.6-2.375-4.15-2.375-7.65 0-2.97.534-6.3 1.6-10 1.067-3.7 2.625-6.87 4.675-9.5s4.475-3.95 7.275-3.95c1 0 1.867.13 2.6.4-1.466.87-2.875 2.65-4.225 5.35-1.35 2.7-2.441 5.72-3.275 9.05-.833 3.33-1.25 6.28-1.25 8.85 0 1.8.234 3.22.7 4.25.467 1.03 1.2 1.55 2.2 1.55 1.634 0 3.259-1.17 4.875-3.53 1.617-2.34 2.95-5.3 4-8.87 1.05-3.57 1.575-7 1.575-10.3 0-2.07-.175-3.72-.525-4.97-.35-1.25-.991-2.2-1.925-2.83-.933-.63-2.25-.95-3.95-.95-2.566 0-4.95.53-7.15 1.58s-3.958 2.55-5.275 4.5c-1.316 1.95-1.975 4.2-1.975 6.77 0 .9.084 1.56.25 1.98.167.41.25.65.25.72-1.666 0-2.925-.33-3.775-1-.85-.67-1.275-1.73-1.275-3.2 0-2.3.942-4.5 2.825-6.6 1.884-2.1 4.384-3.8 7.5-5.1 3.117-1.3 6.392-1.95 9.825-1.95 4.167 0 7.184 1.13 9.05 3.4 1.867 2.27 2.8 5.4 2.8 9.4 0 3.57-.666 7.28-2 11.15-1.333 3.87-3.391 7.14-6.175 9.82-2.783 2.69-6.208 4.03-10.275 4.03Z"
        style="fill:#0085ff;fill-rule:nonzero" transform="matrix(-93.75 0 0 -79.3651 42171.4 116564)" />
</svg>
